<svg width="196" height="183" viewBox="0 0 196 183" fill="none" xmlns="http://www.w3.org/2000/svg">
<mask id="path-1-outside-1" maskUnits="userSpaceOnUse" x="0.00012207" y="-0.00012207" width="196" height="183" fill="black">
<rect fill="white" x="0.00012207" y="-0.00012207" width="196" height="183"/>
<path fill-rule="evenodd" clip-rule="evenodd" d="M166.062 7.99988H31.4489L8.00012 72.2668V72.267L96.5845 170.404L186.906 72.267L166.062 7.99988Z"/>
</mask>
<path fill-rule="evenodd" clip-rule="evenodd" d="M166.062 7.99988H31.4489L8.00012 72.2668V72.267L96.5845 170.404L186.906 72.267L166.062 7.99988Z" fill="#6BAAB7"/>
<path d="M31.4489 7.99988V-0.00012207H25.852L23.9335 5.25778L31.4489 7.99988ZM166.062 7.99988L173.672 5.53184L171.878 -0.00012207H166.062V7.99988ZM8.00012 72.2668L0.484746 69.5247L0.00012207 70.8529V72.2668H8.00012ZM8.00012 72.267H0.00012207V75.3436L2.06162 77.6274L8.00012 72.267ZM96.5845 170.404L90.646 175.765L96.5271 182.28L102.471 175.822L96.5845 170.404ZM186.906 72.267L192.792 77.6845L195.958 74.2452L194.516 69.7989L186.906 72.267ZM31.4489 15.9999H166.062V-0.00012207H31.4489V15.9999ZM15.5155 75.0089L38.9643 10.742L23.9335 5.25778L0.484746 69.5247L15.5155 75.0089ZM16.0001 72.267V72.2668H0.00012207V72.267H16.0001ZM102.523 165.044L13.9386 66.9065L2.06162 77.6274L90.646 175.765L102.523 165.044ZM181.019 66.8494L90.6981 164.987L102.471 175.822L192.792 77.6845L181.019 66.8494ZM158.453 10.4679L179.296 74.735L194.516 69.7989L173.672 5.53184L158.453 10.4679Z" fill="#325172" mask="url(#path-1-outside-1)"/>
<path d="M96.5845 170.404L8.00014 72.2669H186.906L96.5845 170.404Z" fill="black" fill-opacity="0.22"/>
<path d="M31.4489 7.99988H166.062L186.906 72.267H8.00012L31.4489 7.99988Z" fill="white" fill-opacity="0.24"/>
<path d="M96.5845 7.99988H31.4489L8.00012 72.2669L96.5845 170.404V7.99988Z" fill="url(#paint0_linear)"/>
<defs>
<linearGradient id="paint0_linear" x1="52.2923" y1="7.99988" x2="52.2923" y2="170.404" gradientUnits="userSpaceOnUse">
<stop stop-color="#8FBEC8" stop-opacity="0.23"/>
<stop offset="1" stop-color="#53858F" stop-opacity="0.71"/>
</linearGradient>
</defs>
</svg>
