<svg width="175" height="179" viewBox="0 0 175 179" fill="none" xmlns="http://www.w3.org/2000/svg">
<path d="M67.0227 142.924C83.8651 142.924 99.311 139.171 110.688 132.902C121.924 126.711 130.045 117.511 130.045 106.401C130.045 95.2914 121.924 86.0918 110.688 79.901C99.311 73.6317 83.8651 69.8787 67.0227 69.8787C50.1803 69.8787 34.7345 73.6317 23.3569 79.901C12.1218 86.0918 4 95.2914 4 106.401C4 117.511 12.1218 126.711 23.3569 132.902C34.7345 139.171 50.1803 142.924 67.0227 142.924Z" fill="#558F50" stroke="#21601B" stroke-width="8"/>
<path d="M107.977 174.242C124.82 174.242 140.266 170.489 151.643 164.22C162.878 158.029 171 148.829 171 137.719C171 126.61 162.878 117.41 151.643 111.219C140.266 104.95 124.82 101.197 107.977 101.197C91.1349 101.197 75.689 104.95 64.3115 111.219C53.0764 117.41 44.9546 126.61 44.9546 137.719C44.9546 148.829 53.0764 158.029 64.3115 164.22C75.689 170.489 91.1349 174.242 107.977 174.242Z" fill="#487944" stroke="#21601B" stroke-width="8"/>
<circle cx="67.0229" cy="50.9923" r="46.1591" fill="#4CB343" stroke="#21601B" stroke-width="8"/>
<circle cx="107.977" cy="82.3104" r="46.1591" fill="#47A73F" stroke="#21601B" stroke-width="8"/>
</svg>
