<svg width="143" height="191" viewBox="0 0 143 191" fill="none" xmlns="http://www.w3.org/2000/svg">
<mask id="path-1-outside-1" maskUnits="userSpaceOnUse" x="0.00012207" y="0.318359" width="143" height="191" fill="black">
<rect fill="white" x="0.00012207" y="0.318359" width="143" height="191"/>
<path fill-rule="evenodd" clip-rule="evenodd" d="M133 95.6592L72.2769 14.3184L11.0001 95.6592L72.2769 177L133 95.6592Z"/>
</mask>
<path fill-rule="evenodd" clip-rule="evenodd" d="M133 95.6592L72.2769 14.3184L11.0001 95.6592L72.2769 177L133 95.6592Z" fill="#B63E5B"/>
<path d="M72.2769 14.3184L78.6876 9.53261L72.3059 0.984208L65.8871 9.50474L72.2769 14.3184ZM133 95.6592L139.411 100.445L142.983 95.6592L139.411 90.8734L133 95.6592ZM11.0001 95.6592L4.61036 90.8456L0.984099 95.6592L4.61036 100.473L11.0001 95.6592ZM72.2769 177L65.8871 181.814L72.3059 190.334L78.6876 181.786L72.2769 177ZM65.8662 19.1041L126.589 100.445L139.411 90.8734L78.6876 9.53261L65.8662 19.1041ZM17.3899 100.473L78.6666 19.132L65.8871 9.50474L4.61036 90.8456L17.3899 100.473ZM78.6666 172.186L17.3899 90.8456L4.61036 100.473L65.8871 181.814L78.6666 172.186ZM126.589 90.8734L65.8662 172.214L78.6876 181.786L139.411 100.445L126.589 90.8734Z" fill="#723241" mask="url(#path-1-outside-1)"/>
<path opacity="0.4" d="M72.2769 14.3184V95.6592H11.0001L72.2769 14.3184Z" fill="white" fill-opacity="0.6"/>
<path opacity="0.4" d="M72.2769 177V95.6592H11.0001L72.2769 177Z" fill="white" fill-opacity="0.4"/>
<path opacity="0.4" d="M72.2769 14.3184V95.6592H132.469L72.2769 14.3184Z" fill="white" fill-opacity="0.4"/>
<path opacity="0.4" d="M72.2769 177V95.6592H132.469L72.2769 177Z" fill="white" fill-opacity="0.15"/>
</svg>
