<svg width="189" height="178" viewBox="0 0 189 178" fill="none" xmlns="http://www.w3.org/2000/svg">
<mask id="path-1-outside-1" maskUnits="userSpaceOnUse" x="61.2192" y="92.8309" width="67" height="85" fill="black">
<rect fill="white" x="61.2192" y="92.8309" width="67" height="85"/>
<path d="M95.0106 117.73C95.0106 117.73 103.102 81.9565 103.102 117.73C103.102 153.504 112.936 169.145 112.936 169.145H76.2192C76.2192 169.145 86.0495 153.504 86.0495 117.73C86.0495 81.9565 95.0106 117.73 95.0106 117.73Z"/>
</mask>
<path d="M95.0106 117.73C95.0106 117.73 103.102 81.9565 103.102 117.73C103.102 153.504 112.936 169.145 112.936 169.145H76.2192C76.2192 169.145 86.0495 153.504 86.0495 117.73C86.0495 81.9565 95.0106 117.73 95.0106 117.73Z" fill="#FFAC33"/>
<path d="M95.0106 117.73L87.2504 119.674L102.813 119.495L95.0106 117.73ZM76.2192 169.145L69.446 164.887L61.742 177.145H76.2192V169.145ZM112.936 169.145V177.145H127.415L119.708 164.886L112.936 169.145ZM111.102 117.73C111.102 113.141 110.974 109.521 110.722 106.739C110.497 104.252 110.112 101.517 109.127 99.3409C108.695 98.3862 107.431 95.8749 104.46 94.5616C100.694 92.8963 97.3947 94.3915 95.7966 95.569C94.3727 96.6182 93.4933 97.8979 93.0527 98.5937C92.5339 99.4127 92.1083 100.265 91.7677 101.018C90.4665 103.894 89.3154 107.8 88.5543 110.604C88.1524 112.085 87.8189 113.412 87.5856 114.37C87.4686 114.85 87.3761 115.24 87.3119 115.515C87.2798 115.652 87.2547 115.76 87.2372 115.836C87.2284 115.875 87.2216 115.905 87.2166 115.926C87.2142 115.937 87.2122 115.946 87.2107 115.952C87.21 115.956 87.2093 115.958 87.2088 115.961C87.2086 115.962 87.2083 115.963 87.2082 115.963C87.2079 115.965 87.2077 115.965 95.0106 117.73C102.813 119.495 102.813 119.496 102.813 119.497C102.813 119.497 102.813 119.497 102.813 119.497C102.813 119.497 102.813 119.497 102.813 119.496C102.814 119.493 102.815 119.489 102.816 119.483C102.819 119.471 102.824 119.45 102.83 119.421C102.844 119.364 102.864 119.276 102.891 119.16C102.945 118.928 103.027 118.585 103.131 118.157C103.34 117.298 103.639 116.11 103.996 114.795C104.174 114.139 104.365 113.457 104.565 112.772C104.766 112.087 104.973 111.408 105.183 110.758C105.288 110.433 105.393 110.118 105.497 109.815C105.602 109.512 105.704 109.224 105.804 108.953C105.905 108.681 106.001 108.431 106.093 108.204C106.185 107.977 106.27 107.78 106.345 107.613C106.422 107.444 106.483 107.32 106.527 107.234C106.549 107.193 106.564 107.165 106.573 107.15C106.581 107.135 106.581 107.137 106.57 107.155C106.559 107.171 106.534 107.21 106.494 107.266C106.454 107.321 106.392 107.404 106.306 107.506C106.263 107.558 106.211 107.617 106.151 107.682C106.092 107.747 106.021 107.819 105.941 107.898C105.86 107.976 105.766 108.063 105.659 108.155C105.552 108.247 105.428 108.346 105.288 108.45C105.147 108.554 104.986 108.664 104.804 108.775C104.622 108.886 104.415 109.001 104.183 109.112C103.721 109.335 103.146 109.549 102.467 109.686C102.128 109.754 101.767 109.802 101.387 109.821C101.007 109.841 100.618 109.831 100.223 109.79C99.8282 109.748 99.4398 109.676 99.0614 109.574C98.6833 109.472 98.3258 109.343 97.9909 109.195C97.3195 108.899 96.7695 108.536 96.3346 108.182C96.1177 108.005 95.9283 107.83 95.7644 107.663C95.6005 107.497 95.4593 107.337 95.3388 107.189C95.2183 107.041 95.1155 106.901 95.0288 106.775C94.942 106.649 94.8687 106.533 94.8076 106.43C94.7464 106.326 94.6954 106.232 94.6534 106.151C94.6114 106.069 94.5769 105.997 94.5493 105.936C94.4947 105.815 94.4609 105.726 94.4434 105.677C94.4256 105.627 94.4195 105.604 94.4225 105.615C94.4253 105.624 94.4347 105.658 94.4491 105.719C94.4634 105.78 94.4813 105.863 94.5019 105.969C94.5225 106.075 94.545 106.201 94.5686 106.348C94.5923 106.496 94.6167 106.662 94.6414 106.847C94.6911 107.221 94.7404 107.662 94.7873 108.18C94.8341 108.698 94.8776 109.282 94.9163 109.938C94.955 110.595 94.9887 111.318 95.0164 112.113C95.0718 113.706 95.1025 115.567 95.1025 117.73H111.102ZM95.0106 117.73C102.771 115.787 102.771 115.786 102.77 115.784C102.77 115.784 102.77 115.782 102.77 115.781C102.769 115.779 102.768 115.776 102.767 115.773C102.766 115.766 102.763 115.757 102.761 115.746C102.755 115.724 102.747 115.694 102.738 115.655C102.718 115.578 102.69 115.469 102.654 115.331C102.583 115.055 102.48 114.662 102.349 114.18C102.09 113.218 101.719 111.884 101.272 110.397C100.427 107.587 99.1415 103.644 97.6827 100.732C97.2997 99.9674 96.8225 99.1053 96.244 98.2804C95.7366 97.557 94.7878 96.328 93.3164 95.3491C91.6796 94.26 88.6317 93.0634 85.1618 94.4487C82.2308 95.6188 80.8461 97.9592 80.2971 99.055C79.1632 101.318 78.7257 104.154 78.4744 106.662C78.1921 109.48 78.0495 113.128 78.0495 117.73H94.0495C94.0495 115.575 94.0833 113.724 94.1442 112.143C94.2053 110.559 94.2924 109.278 94.3947 108.257C94.4984 107.222 94.6094 106.539 94.6983 106.126C94.7192 106.028 94.7369 105.955 94.7501 105.904C94.7635 105.853 94.7708 105.83 94.7704 105.831C94.7701 105.832 94.7592 105.867 94.7348 105.928C94.7107 105.989 94.6681 106.09 94.6023 106.222C94.4839 106.458 94.2152 106.944 93.7184 107.495C93.2103 108.058 92.3575 108.804 91.094 109.308C90.4619 109.561 89.7799 109.73 89.0678 109.798C88.3578 109.865 87.6843 109.825 87.0698 109.714C85.8609 109.495 84.9784 109.019 84.4533 108.67C83.9272 108.32 83.5903 107.984 83.4277 107.809C83.2551 107.624 83.1631 107.494 83.1447 107.468C83.1223 107.436 83.1365 107.453 83.1845 107.536C83.2309 107.616 83.2957 107.735 83.3775 107.899C83.5437 108.23 83.7411 108.667 83.9635 109.21C84.1836 109.747 84.4116 110.347 84.643 110.993C85.1074 112.291 85.5542 113.689 85.9491 115.003C86.3421 116.31 86.6711 117.492 86.9017 118.347C87.0166 118.773 87.106 119.114 87.1657 119.344C87.1956 119.459 87.2179 119.547 87.2322 119.603C87.2394 119.631 87.2445 119.651 87.2475 119.663C87.2491 119.669 87.2501 119.673 87.2505 119.675C87.2508 119.676 87.2509 119.676 87.2509 119.676C87.2508 119.676 87.2507 119.676 87.2507 119.676C87.2506 119.675 87.2504 119.674 95.0106 117.73ZM78.0495 117.73C78.0495 134.874 75.6957 146.969 73.4576 154.602C72.3372 158.423 71.2415 161.141 70.4737 162.828C70.0896 163.672 69.7868 164.26 69.6032 164.6C69.5113 164.77 69.4492 164.878 69.4214 164.926C69.4075 164.949 69.4023 164.958 69.4062 164.952C69.4081 164.948 69.4124 164.941 69.419 164.931C69.4223 164.925 69.4262 164.919 69.4307 164.912C69.433 164.908 69.4354 164.904 69.4379 164.9C69.4392 164.898 69.4412 164.895 69.4418 164.894C69.4439 164.891 69.446 164.887 76.2192 169.145C82.9925 173.402 82.9946 173.398 82.9969 173.395C82.9976 173.393 82.9999 173.39 83.0015 173.387C83.0046 173.382 83.0079 173.377 83.0114 173.371C83.0182 173.36 83.0257 173.348 83.0337 173.335C83.0498 173.309 83.0681 173.279 83.0887 173.245C83.1298 173.178 83.1797 173.094 83.2379 172.995C83.3541 172.795 83.5032 172.533 83.6801 172.205C84.034 171.55 84.4993 170.636 85.0368 169.455C86.1121 167.092 87.474 163.664 88.8112 159.104C91.4882 149.973 94.0495 136.361 94.0495 117.73H78.0495ZM76.2192 177.145H112.936V161.145H76.2192V177.145ZM112.936 169.145C119.708 164.886 119.71 164.89 119.713 164.893C119.713 164.894 119.715 164.897 119.716 164.899C119.719 164.903 119.721 164.907 119.724 164.911C119.728 164.918 119.732 164.924 119.735 164.93C119.742 164.94 119.746 164.947 119.748 164.951C119.752 164.957 119.747 164.949 119.733 164.925C119.705 164.877 119.643 164.769 119.551 164.599C119.367 164.259 119.065 163.672 118.68 162.827C117.912 161.14 116.816 158.422 115.696 154.601C113.457 146.968 111.102 134.874 111.102 117.73H95.1025C95.1025 136.361 97.6646 149.974 100.342 159.104C101.68 163.665 103.042 167.093 104.118 169.456C104.656 170.637 105.121 171.551 105.475 172.206C105.652 172.534 105.801 172.796 105.918 172.995C105.976 173.095 106.026 173.179 106.067 173.246C106.087 173.28 106.106 173.31 106.122 173.336C106.13 173.349 106.137 173.361 106.144 173.372C106.148 173.378 106.151 173.383 106.154 173.388C106.156 173.391 106.158 173.394 106.159 173.396C106.161 173.399 106.163 173.403 112.936 169.145Z" fill="#686117" mask="url(#path-1-outside-1)"/>
<path d="M37.463 87.4727C55.4439 87.4727 70.0203 72.8963 70.0203 54.9154C70.0203 36.9345 55.4439 22.3582 37.463 22.3582C29.6117 22.3582 21.6164 22.8329 15.5334 25.7645C12.3748 27.2868 9.63304 29.512 7.71841 32.7085C5.81673 35.8834 4.90576 39.7241 4.90576 44.2065C4.90576 53.0064 8.41026 63.5757 13.9296 71.9544C19.3624 80.2017 27.5517 87.4727 37.463 87.4727Z" stroke="#686117" stroke-width="8"/>
<path d="M151.692 87.4727C133.711 87.4727 119.135 72.8963 119.135 54.9154C119.135 36.9345 133.711 22.3582 151.692 22.3582C159.543 22.3582 167.539 22.8329 173.622 25.7645C176.78 27.2868 179.522 29.512 181.437 32.7085C183.338 35.8834 184.249 39.7241 184.249 44.2065C184.249 53.0064 180.745 63.5757 175.226 71.9544C169.793 80.2017 161.603 87.4727 151.692 87.4727Z" stroke="#686117" stroke-width="8"/>
<path d="M95.5975 128.269C102.226 128.269 108.959 123.928 114.931 118.202C121.077 112.312 127.164 104.235 132.537 95.2639C143.213 77.4395 151.613 55.1559 151.613 38.0728C151.613 31.2705 151.291 25.7803 150.54 21.3808C149.793 17 148.574 13.4078 146.572 10.6324C142.293 4.70097 135.598 3.99757 128.697 3.99988C128.697 3.99988 128.697 3.99988 128.697 3.99988L95.5975 4.00462C95.5974 4.00462 95.5972 4.00462 95.597 4.00462C90.9168 4.00462 83.0742 4.03666 75.6002 4.06862C74.9252 4.07151 74.2532 4.0744 73.5869 4.07726C66.8646 4.10613 60.7139 4.13255 57.7684 4.13255C55.062 4.13255 52.309 4.50762 49.7777 5.76937C47.1715 7.06843 45.126 9.1438 43.604 11.9816C40.7232 17.3528 39.5825 25.7489 39.5825 38.0728C39.5825 55.1557 47.9804 77.4393 58.6559 95.2638C64.0286 104.235 70.1159 112.312 76.2619 118.203C82.235 123.928 88.9681 128.269 95.5975 128.269Z" fill="#FFCC4D" stroke="#686117" stroke-width="8"/>
<path d="M120.294 152.746C121.435 152.746 122.744 152.611 123.954 152.023C125.363 151.337 126.309 150.199 126.773 148.868C127.157 147.766 127.145 146.701 127.13 146.15C127.119 145.72 127.105 145.498 127.094 145.317C127.083 145.122 127.074 144.975 127.074 144.667V142.627C127.074 139.809 125.413 137.69 123.603 136.446C121.777 135.191 119.476 134.547 117.124 134.547H73.0125C70.7007 134.547 68.2843 135.168 66.342 136.242C64.6508 137.178 62.0203 139.235 62.0203 142.627V144.667V144.685C62.0203 145.214 62.0202 145.982 62.1139 146.743C62.2104 147.527 62.4352 148.594 63.0752 149.64C64.5891 152.113 67.2282 152.746 69.5798 152.746H120.294Z" fill="#FFFA83" stroke="#686117" stroke-width="8"/>
<path d="M141.549 173.144C145.179 173.144 148.824 172.426 150.628 169.165C151.406 167.76 151.557 166.311 151.598 165.313C151.622 164.732 151.606 163.917 151.594 163.291C151.589 163.009 151.584 162.766 151.584 162.6V161.41C151.584 156.044 147.85 150.866 141.549 150.866H48.7632C43.392 150.866 37.5427 155.114 37.5427 161.41V162.6C37.5427 164.59 37.7669 167.51 39.7956 169.849C41.9206 172.3 45.1325 173.144 48.7632 173.144H141.549Z" fill="#FFFA83" stroke="#686117" stroke-width="8"/>
</svg>
